<svg width="135" height="40" viewBox="0 0 135 40" fill="none" xmlns="http://www.w3.org/2000/svg">
<path d="M13.8583 24.126V23.4331C13.7953 23.4331 13.6693 23.4331 13.6063 23.4331C11.9685 23.4331 10.3937 23.0551 8.94488 22.2362C8.56693 22.0472 8.25197 21.8583 7.93701 21.6063C7.62205 21.3543 7.24409 21.2283 6.86614 21.2283H3.77953V13.2913C3.90551 8.06299 8.31496 3.77953 13.6063 3.77953C16.315 3.77953 18.8346 4.85039 20.6614 6.80315C21.6693 7.87402 22.4252 9.07087 22.8661 10.4567C24 10.0157 25.2598 9.70079 26.5197 9.51181C25.8898 7.55906 24.8189 5.66929 23.3701 4.15748C20.7874 1.44882 17.3228 0 13.6063 0C6.17323 0 0.188976 5.79528 0 13.2913V21.7323C0 23.5591 1.51181 25.0709 3.33858 25.0709H6.29921C6.61417 25.2598 6.86614 25.4488 7.1811 25.5748C9.13386 26.6457 11.4016 27.2126 13.6063 27.2126C13.8583 27.2126 14.0472 27.2126 14.2992 27.1496C14.0472 26.2047 13.8583 25.1969 13.8583 24.126Z" fill="#F3FFF8"/>
<path d="M28.2205 40C19.3386 40 12.2205 33.0709 11.9685 24.189V13.7953C11.9685 11.7795 13.6063 10.1417 15.622 10.1417H19.3386C21.9843 8.44095 25.0079 7.49606 28.2205 7.49606C37.1654 7.49606 44.4724 14.8032 44.4724 23.748C44.4724 32.6929 37.1654 40 28.2205 40ZM15.748 13.9213V24.126C15.937 30.7402 21.5433 36.2205 28.2205 36.2205C35.0866 36.2205 40.6929 30.6142 40.6929 23.748C40.6929 16.8819 35.0866 11.2756 28.2205 11.2756C25.6378 11.2756 23.1811 12.0945 21.0394 13.5433C20.7244 13.7953 20.3465 13.9213 19.9685 13.9213H15.748Z" fill="#F3FFF8"/>
<path d="M28.2205 32.6299C23.0551 32.6299 18.8976 28.5984 18.7717 23.4331C18.7717 22.3622 19.5906 21.5433 20.5984 21.4803C21.6063 21.4803 22.4882 22.2992 22.5512 23.3071C22.6142 26.3937 25.1968 28.8504 28.2205 28.8504C31.3701 28.8504 33.8898 26.2677 33.8898 23.1811C33.8898 22.1102 34.7087 21.2913 35.7795 21.2913C36.8504 21.2913 37.6693 22.1102 37.6693 23.1811C37.6693 28.3464 33.4488 32.6299 28.2205 32.6299Z" fill="#F3FFF8"/>
<path d="M52.9134 11.5905V2.14172H57.0079C57.6378 2.14172 58.1417 2.26771 58.6457 2.45668C59.0866 2.70865 59.4646 3.02361 59.7165 3.40157C59.9685 3.84251 60.0945 4.28346 60.0945 4.85039C60.0945 5.41731 59.9685 5.85826 59.7165 6.2992C59.4646 6.74015 59.0866 7.05511 58.6457 7.24409C58.2047 7.49606 57.6378 7.62204 57.0079 7.62204H53.9843V11.5905H52.9134ZM53.9843 6.67716H56.9449C57.5748 6.67716 58.0787 6.48818 58.4567 6.17322C58.8347 5.85826 59.0236 5.41731 59.0236 4.85039C59.0236 4.28346 58.8347 3.84251 58.4567 3.52755C58.0787 3.21259 57.5748 3.02361 56.9449 3.02361H53.9843V6.67716Z" fill="#F3FFF8"/>
<path d="M63.874 11.7165C63.2441 11.7165 62.6142 11.5906 62.1102 11.2756C61.6063 10.9606 61.1654 10.5197 60.8504 10.0158C60.5354 9.51182 60.4095 8.8819 60.4095 8.25198C60.4095 7.62206 60.5354 6.99214 60.8504 6.4882C61.1654 5.98427 61.5433 5.54332 62.0473 5.22836C62.5512 4.9134 63.1181 4.78741 63.748 4.78741C64.378 4.78741 64.8819 4.9134 65.3858 5.22836C65.8898 5.54332 66.2677 5.98427 66.5197 6.4882C66.7717 6.92915 66.8976 7.55907 66.8976 8.18899V8.50395H61.3543C61.4173 8.9449 61.5433 9.32285 61.7953 9.7008C62.0473 10.0788 62.2992 10.3307 62.6772 10.5197C63.0551 10.7087 63.4331 10.8347 63.874 10.8347C64.252 10.8347 64.5669 10.7717 64.8819 10.6457C65.1969 10.5197 65.5118 10.3937 65.7008 10.2047L66.3307 10.8977C65.9528 11.1496 65.5748 11.4016 65.1339 11.5276C64.8189 11.6536 64.315 11.7165 63.874 11.7165ZM61.3543 7.68505H65.8898C65.8268 7.3071 65.7008 6.92915 65.5118 6.61419C65.3228 6.29923 65.0079 6.04726 64.6929 5.85828C64.378 5.6693 64 5.60631 63.6221 5.60631C63.2441 5.60631 62.8661 5.6693 62.5512 5.85828C62.2362 6.04726 61.9843 6.29923 61.7323 6.61419C61.6063 6.92915 61.4173 7.3071 61.3543 7.68505Z" fill="#F3FFF8"/>
<path d="M71.4331 11.7165C70.8032 11.7165 70.2362 11.5906 69.7323 11.2756C69.2284 10.9606 68.7874 10.5197 68.4724 10.0158C68.1575 9.51182 68.0315 8.8819 68.0315 8.25198C68.0315 7.62205 68.1575 6.99213 68.4724 6.4882C68.7874 5.98426 69.1654 5.54331 69.7323 5.22835C70.2362 4.91339 70.8032 4.78741 71.4961 4.78741C71.874 4.78741 72.252 4.8504 72.6299 4.97639C73.0079 5.10237 73.3228 5.29135 73.6378 5.54331V2.14174L74.5827 1.88977V11.5906H73.5748V10.8976C73.0079 11.4016 72.252 11.7165 71.4331 11.7165ZM71.4961 10.8347C71.937 10.8347 72.315 10.7717 72.6929 10.5827C73.0709 10.3937 73.3858 10.2047 73.5748 9.88977V6.55119C73.3228 6.23623 73.0709 6.04725 72.6929 5.85827C72.315 5.6693 71.937 5.60631 71.4961 5.60631C71.0551 5.60631 70.6142 5.73229 70.2362 5.92127C69.8583 6.17324 69.5433 6.4252 69.3543 6.86615C69.1024 7.2441 69.0394 7.68505 69.0394 8.18898C69.0394 8.69292 69.1654 9.13387 69.3543 9.51182C69.6063 9.88977 69.8583 10.2047 70.2362 10.4567C70.6142 10.7087 71.0551 10.8347 71.4961 10.8347Z" fill="#F3FFF8"/>
<path d="M78.4252 11.7165C77.9213 11.7165 77.4803 11.6535 77.1024 11.4646C76.7244 11.2756 76.4095 11.0236 76.2205 10.7716C76.0315 10.4567 75.9055 10.0787 75.9055 9.70078C75.9055 9.07086 76.1575 8.56692 76.6614 8.18897C77.1654 7.81101 77.7953 7.62204 78.6142 7.62204C79.3701 7.62204 80 7.74802 80.6299 8.06298V7.18109C80.6299 6.61416 80.5039 6.23621 80.189 5.98424C79.874 5.73227 79.4331 5.5433 78.8661 5.5433C78.5512 5.5433 78.1732 5.60629 77.8583 5.66928C77.5433 5.73227 77.1654 5.92125 76.7244 6.11023L76.3465 5.35432C76.8504 5.10235 77.2913 4.97637 77.6693 4.85038C78.1102 4.7244 78.4882 4.66141 78.9291 4.66141C79.811 4.66141 80.441 4.85038 80.8819 5.29133C81.3858 5.66928 81.5748 6.2992 81.5748 7.05511V11.5905H80.6299V10.8976C80.315 11.1496 80 11.3386 79.6221 11.4646C79.2441 11.6535 78.8661 11.7165 78.4252 11.7165ZM76.9134 9.63779C76.9134 10.0157 77.1024 10.3307 77.4173 10.5827C77.7323 10.8346 78.1732 10.9606 78.6772 10.9606C79.0551 10.9606 79.4331 10.8976 79.811 10.7716C80.189 10.6457 80.4409 10.4567 80.6929 10.2047V8.94487C80.4409 8.7559 80.126 8.62991 79.811 8.50393C79.4961 8.44094 79.1181 8.37794 78.7402 8.37794C78.1732 8.37794 77.7953 8.50393 77.4173 8.7559C77.0394 8.94487 76.9134 9.25983 76.9134 9.63779Z" fill="#F3FFF8"/>
<path d="M83.2756 11.5906V2.14174L84.2835 1.88977V11.5906H83.2756Z" fill="#F3FFF8"/>
<path d="M88.126 11.7165C87.5591 11.7165 87.0551 11.6536 86.5512 11.4646C86.0473 11.2756 85.6063 11.0236 85.2914 10.7087L85.9213 10.0788C86.2362 10.3937 86.6142 10.5827 86.9921 10.7717C87.3701 10.9606 87.748 11.0236 88.126 11.0236C88.6929 11.0236 89.1339 10.8977 89.4488 10.7087C89.7638 10.4567 89.9528 10.2047 89.9528 9.82679C89.9528 9.51183 89.8268 9.32285 89.6378 9.13387C89.4488 8.9449 89.1339 8.8819 88.6929 8.81891L87.4961 8.62993C86.8032 8.50395 86.2992 8.31497 85.9843 8.00001C85.6693 7.68505 85.4803 7.3071 85.4803 6.74017C85.4803 6.36222 85.6063 6.04726 85.7953 5.7323C85.9843 5.41734 86.2992 5.22836 86.6772 5.03938C87.0551 4.85041 87.4961 4.78741 88 4.78741C88.5039 4.78741 88.9449 4.85041 89.3858 4.97639C89.8268 5.10238 90.2677 5.35434 90.6457 5.6693L90.1417 6.36222C89.8268 5.98427 89.4488 5.79529 89.0709 5.6693C88.6929 5.54332 88.378 5.48033 88 5.48033C87.5591 5.48033 87.1811 5.60631 86.8662 5.79529C86.5512 5.98427 86.4252 6.29923 86.4252 6.61419C86.4252 6.92915 86.5512 7.18112 86.7402 7.3071C86.9291 7.49608 87.2441 7.55907 87.6851 7.62206L88.8819 7.81104C89.5748 7.87403 90.0788 8.126 90.3937 8.37797C90.7087 8.69293 90.8976 9.13387 90.8976 9.63781C90.8976 10.0158 90.7717 10.3937 90.5197 10.7087C90.2677 11.0236 89.9528 11.2756 89.5118 11.4646C89.1339 11.6536 88.6929 11.7165 88.126 11.7165Z" fill="#F3FFF8"/>
<path d="M98.8347 11.7165C98.0158 11.7165 97.3228 11.5276 96.7559 11.2126C96.189 10.8976 95.748 10.3937 95.4331 9.76377C95.1181 9.13385 94.9291 8.37794 94.9291 7.55905V2.14172H96V7.55905C96 8.18897 96.126 8.7559 96.378 9.25983C96.6299 9.76377 96.9449 10.0787 97.3858 10.3937C97.8268 10.6457 98.3307 10.7716 98.8976 10.7716C99.4646 10.7716 99.9685 10.6457 100.409 10.3937C100.85 10.1417 101.165 9.76377 101.417 9.25983C101.669 8.7559 101.795 8.18897 101.795 7.55905V2.14172H102.866V7.55905C102.866 8.37794 102.677 9.13385 102.362 9.76377C102.047 10.3937 101.606 10.8976 100.976 11.2126C100.346 11.5905 99.6536 11.7165 98.8347 11.7165Z" fill="#F3FFF8"/>
<path d="M104.441 14.3622V4.78739H105.449V5.54329C106.016 4.97636 106.772 4.7244 107.654 4.7244C108.283 4.7244 108.85 4.85038 109.417 5.16534C109.984 5.4803 110.362 5.92125 110.614 6.42518C110.929 6.92912 111.055 7.55904 111.055 8.18896C111.055 8.81888 110.929 9.44881 110.614 9.95274C110.299 10.4567 109.921 10.8976 109.417 11.2126C108.913 11.5275 108.346 11.6535 107.654 11.6535C107.276 11.6535 106.898 11.5905 106.52 11.4646C106.142 11.3386 105.827 11.1496 105.512 10.8976V14.3622H104.441ZM107.528 10.8346C108.032 10.8346 108.409 10.7086 108.787 10.5197C109.165 10.2677 109.48 9.95274 109.669 9.57479C109.921 9.19684 109.984 8.75589 109.984 8.25196C109.984 7.74802 109.858 7.30707 109.669 6.92912C109.417 6.55117 109.165 6.23621 108.787 5.98424C108.409 5.73227 107.969 5.66928 107.528 5.66928C107.087 5.66928 106.709 5.73227 106.331 5.92125C105.953 6.11022 105.638 6.2992 105.449 6.61416V9.95274C105.701 10.2677 106.016 10.4567 106.331 10.6457C106.646 10.8346 107.15 10.8346 107.528 10.8346Z" fill="#F3FFF8"/>
<path d="M53.5433 33.1339V15.0551H62.4882C63.748 15.0551 64.8189 15.2441 65.7638 15.685C66.7087 16.126 67.4646 16.6929 67.9685 17.4488C68.4725 18.2047 68.7874 19.0866 68.7874 20.0945C68.7874 20.8504 68.5984 21.5433 68.2205 22.1732C67.8425 22.8031 67.3386 23.3701 66.7087 23.811C67.5276 24.252 68.1575 24.8189 68.6614 25.5118C69.1654 26.2047 69.3543 26.9606 69.3543 27.7795C69.3543 28.8504 69.1024 29.7323 68.5354 30.5512C68.0315 31.3701 67.2756 32 66.2677 32.4409C65.2599 32.8819 64.252 33.1339 62.9921 33.1339H53.5433ZM58.0158 22.2362H62.2362C62.8662 22.2362 63.4331 22.0472 63.811 21.7323C64.189 21.4173 64.378 20.9764 64.378 20.4724C64.378 19.9055 64.189 19.4646 63.811 19.1496C63.4331 18.8346 62.9291 18.6457 62.2362 18.6457H58.0158V22.2362ZM58.0158 29.4803H62.6142C63.3071 29.4803 63.874 29.2913 64.252 28.9764C64.6299 28.6614 64.8819 28.1575 64.8819 27.5905C64.8819 27.0236 64.6929 26.5197 64.252 26.2047C63.874 25.8898 63.3071 25.7008 62.6142 25.7008H58.0158V29.4803Z" fill="#F3FFF8"/>
<path d="M76.6614 33.3858C75.5906 33.3858 74.6457 33.1339 73.8268 32.6929C73.0079 32.252 72.378 31.5591 71.874 30.7402C71.4331 29.9213 71.1811 28.9764 71.1811 27.9055V19.4646H75.3386V27.3386C75.3386 28.0945 75.5906 28.6614 76.0315 29.1024C76.4724 29.5433 77.1024 29.7953 77.7953 29.7953C78.2992 29.7953 78.8032 29.7323 79.2441 29.4803C79.685 29.2913 80 29.0394 80.252 28.6614V19.4646H84.4095V33.1339H80.252V32.189C79.3071 32.9449 78.0472 33.3858 76.6614 33.3858Z" fill="#F3FFF8"/>
<path d="M93.4173 33.3228C92.0945 33.3228 90.9606 33.0079 89.8898 32.378C88.8189 31.748 88 30.9291 87.3701 29.8583C86.7402 28.7874 86.4252 27.5906 86.4252 26.3307C86.4252 25.0079 86.7402 23.811 87.3701 22.8032C88 21.7323 88.8819 20.9134 89.9528 20.2835C91.0236 19.6535 92.2205 19.3386 93.5433 19.3386C94.1732 19.3386 94.8032 19.4016 95.3701 19.5906C95.937 19.7165 96.504 19.9685 97.0079 20.2835V15.1181L101.165 14.4882V33.1969H97.0079V32.126C96 32.8819 94.8032 33.3228 93.4173 33.3228ZM94.1732 29.7323C94.7402 29.7323 95.3071 29.6693 95.748 29.4803C96.252 29.2913 96.6299 29.0394 97.0079 28.6614V23.874C96.6299 23.5591 96.189 23.2441 95.748 23.0551C95.2441 22.8661 94.7402 22.8032 94.1732 22.8032C93.4803 22.8032 92.9134 22.9291 92.3465 23.2441C91.7795 23.5591 91.4016 23.937 91.0236 24.5039C90.7087 25.0079 90.5197 25.6378 90.5197 26.2677C90.5197 26.8976 90.7087 27.5276 91.0236 28.0315C91.3386 28.5354 91.7795 28.9764 92.3465 29.2913C92.9134 29.6063 93.4803 29.7323 94.1732 29.7323Z" fill="#F3FFF8"/>
<path d="M110.173 33.3228C108.913 33.3228 107.717 33.0079 106.646 32.378C105.575 31.748 104.756 30.9291 104.126 29.8583C103.496 28.7874 103.181 27.5906 103.181 26.3307C103.181 25.0079 103.496 23.811 104.126 22.8032C104.756 21.7323 105.575 20.9134 106.709 20.2835C107.78 19.6535 108.976 19.3386 110.299 19.3386C110.929 19.3386 111.559 19.4016 112.126 19.5906C112.693 19.7165 113.26 19.9685 113.764 20.2835V15.1181L117.921 14.4882V33.1969H113.764V32.126C112.756 32.8819 111.559 33.3228 110.173 33.3228ZM110.929 29.7323C111.496 29.7323 112.063 29.6693 112.504 29.4803C113.008 29.2913 113.386 29.0394 113.764 28.6614V23.874C113.386 23.5591 112.945 23.2441 112.504 23.0551C112 22.8661 111.496 22.8032 110.929 22.8032C110.236 22.8032 109.669 22.9291 109.102 23.2441C108.535 23.5591 108.157 23.937 107.843 24.5039C107.528 25.0079 107.339 25.6378 107.339 26.2677C107.339 26.8976 107.528 27.5276 107.843 28.0315C108.157 28.5354 108.598 28.9764 109.102 29.2913C109.606 29.6063 110.236 29.7323 110.929 29.7323Z" fill="#F3FFF8"/>
<path d="M122.205 38.6772C121.89 38.6772 121.575 38.6772 121.26 38.6142C120.945 38.5512 120.693 38.5512 120.504 38.4882V34.8976C120.819 34.9606 121.26 35.0236 121.764 35.0236C123.087 35.0236 124.032 34.4567 124.472 33.2599L119.244 19.4016H123.843L126.866 28.0315L130.394 19.4016H134.929L128.819 33.7638C128.315 34.9606 127.748 35.9055 127.181 36.5984C126.551 37.2913 125.858 37.8583 125.102 38.1732C124.22 38.5512 123.276 38.6772 122.205 38.6772Z" fill="#F3FFF8"/>
</svg>
