<svg width="23" height="22" viewBox="0 0 23 22" fill="none" xmlns="http://www.w3.org/2000/svg">
<path d="M0 3.49448L1.20718 0L11.5 5.27348L21.7293 0L23 3.49448L22.174 7.05249L22.6823 7.56077L21.9199 7.94199L22.4917 8.45028L21.7293 9.08564L22.174 9.46685L21.1575 10.674H1.71547L0.825967 9.46685L1.20718 9.08564L0.444751 8.45028L0.953039 7.94199L0.190608 7.56077L0.825967 7.05249L0 3.49448Z" fill="#763D16"/>
<path d="M9.84807 6.48066L1.20719 0L8.32321 2.73204L9.84807 6.48066L10.1022 11.6906L10.2293 17.3453L9.59393 14.1685L7.11603 13.4696L7.2431 15.6298L9.84807 17.5994L6.86189 19.0608L1.71548 20.5221L0.25415 15.6298H7.2431L5.14642 11.5L6.54421 9.27624L9.84807 6.48066Z" fill="#E4761B"/>
<path d="M21.7293 0L13.0884 6.48066L16.3923 9.27624L17.7901 11.5L15.6934 15.6298H22.6823L21.221 20.5221L16.0746 19.0608L13.0884 17.5994L15.6934 15.6298L15.8204 13.4696L13.3425 14.1685L12.7072 17.3453L12.8343 11.6906L13.0884 6.48066L14.6133 2.73204L21.7293 0Z" fill="#E4761B"/>
<path d="M7.2431 15.6298H0.25415L1.71548 10.674L6.60774 9.21272L5.14642 11.5L7.2431 15.6298L7.11603 13.4696L9.59393 14.1685L10.2293 17.3453L10.1022 11.6271L9.84807 6.48067L8.32321 2.73206H14.6133L13.0884 6.48067L12.8343 11.6271L12.7072 17.3453L13.3425 14.1685L15.8204 13.4696L15.6934 15.6298L17.7901 11.5L16.3923 9.27625L21.1575 10.674L22.6823 15.6298H15.6934L13.0884 17.5995L12.7072 17.3453H10.2293L9.84807 17.5995L7.2431 15.6298Z" fill="#F6851B"/>
<path d="M6.7984 19.0608L4.38403 15.6298H7.24315L6.7984 19.0608Z" fill="#CD6116"/>
<path d="M9.59398 14.1685L7.11608 13.4696L5.14646 11.5L10.1023 11.6271L9.59398 14.1685Z" fill="#CD6116"/>
<path d="M12.8343 11.6271L13.3426 14.1685L15.8205 13.4696L17.7901 11.5L12.8343 11.6271Z" fill="#CD6116"/>
<path d="M16.1382 19.0608L15.6934 15.6298H18.6161L16.1382 19.0608Z" fill="#CD6116"/>
<path d="M9.84808 17.5995L9.5304 19.6326L9.84808 19.3785H13.0249L13.4696 19.6326L13.1519 17.5995L12.7072 17.3453H10.2293L9.84808 17.5995Z" fill="#161616"/>
<path d="M9.53038 19.6326L9.84806 17.5995L6.79834 19.0608L9.72099 21.3481H13.2155L16.1381 19.0608L13.1519 17.5995L13.4696 19.6326L13.0249 19.3785H9.84806L9.53038 19.6326Z" fill="#D7C1B3"/>
<path d="M8.89497 12.7072L7.11597 13.4696L9.59387 14.1685L8.89497 12.7072Z" fill="#233447"/>
<path d="M14.1049 12.7707L13.3425 14.1685L15.8204 13.4696L14.1049 12.7707Z" fill="#233447"/>
<path d="M9.53038 20.3315L6.79834 19.0608L9.72099 21.3481H13.2155L16.1381 19.0608L13.4696 20.3315V19.6326L13.0249 19.3784H9.84806L9.53038 19.6326V20.3315Z" fill="#C0AD9E"/>
</svg>
