<svg width="238" height="238" viewBox="0 0 238 238" fill="none" xmlns="http://www.w3.org/2000/svg">
<path d="M5 208.04V213.04C2.23858 213.04 0 210.801 0 208.04H5ZM48.0876 208.04V203.04C49.2171 203.04 50.3133 203.422 51.1977 204.125L48.0876 208.04ZM118.847 232.695H123.847C123.847 235.456 121.609 237.695 118.847 237.695V232.695ZM118.847 135.644H113.847C113.847 132.883 116.086 130.644 118.847 130.644V135.644ZM176.704 135.644L179.879 139.507C178.984 140.242 177.862 140.644 176.704 140.644V135.644ZM232.056 106.716L237.028 106.189C237.304 108.794 235.522 111.171 232.944 111.636L232.056 106.716ZM0 118.847C0 53.2097 53.2097 1.52588e-05 118.847 1.52588e-05V10C58.7326 10 10 58.7326 10 118.847H0ZM0 208.04V118.847H10V208.04H0ZM48.0876 213.04H5V203.04H48.0876V213.04ZM118.847 237.695C90.9359 237.695 65.2595 228.067 44.9775 211.955L51.1977 204.125C69.7745 218.882 93.2749 227.695 118.847 227.695V237.695ZM123.847 135.644V232.695H113.847V135.644H123.847ZM176.704 140.644H118.847V130.644H176.704V140.644ZM232.944 111.636C223.441 113.353 212.646 118.236 202.809 123.883C193.036 129.493 184.594 135.632 179.879 139.507L173.529 131.782C178.654 127.57 187.553 121.11 197.83 115.211C208.042 109.349 220.003 103.812 231.167 101.796L232.944 111.636ZM118.847 1.52588e-05C180.21 1.52588e-05 230.706 46.5007 237.028 106.189L227.084 107.243C221.294 52.5865 175.041 10 118.847 10V1.52588e-05Z" fill="#FFC700"/>
</svg>
